<svg width="1050" height="382" viewBox="0 0 1050 382" fill="none" xmlns="http://www.w3.org/2000/svg">
<path fill-rule="evenodd" clip-rule="evenodd" d="M165.496 1.51296C70.959 14.383 0 95.605 0 190.945C0 253.122 29.656 310.27 81.088 347.204C91.702 354.826 116.176 367.378 129.079 371.817C161.539 382.983 198.501 384.935 232.921 377.301C288.348 365.008 335.592 328.079 361.312 276.945C369.447 260.772 376.804 240.349 375.107 238.652C374.385 237.93 373.933 238.045 373.633 239.028C362.719 274.747 349.143 298.513 326.063 322.302C304.726 344.294 279.196 360.364 250.5 369.864C211.104 382.907 170.906 382.906 131.5 369.863C75.39 351.291 30.659 306.561 12.081 250.445C-0.945001 211.1 -0.945001 170.79 12.081 131.445C27.922 83.597 62.89 43.678 108.5 21.377C129.609 11.056 151.857 5.04897 177.25 2.81497C212.559 -0.292034 253.834 9.09997 284.909 27.312C291.886 31.401 296.219 32.309 292 28.798C288.284 25.704 262.763 13.484 252.921 10.085C241.844 6.25896 224.083 2.33697 211.789 0.999965C198.882 -0.402035 177.854 -0.170035 165.496 1.51296ZM965.5 11.3L953.5 13.445L953.23 35.195L952.961 56.945H936.98H921V68.445V79.945H936.876H952.752L953.282 125.195C953.755 165.514 954.031 171.448 955.819 179.649C959.97 198.693 968.398 208.008 986.543 213.607C991.385 215.101 995.774 215.439 1010 215.413L1027.5 215.38L1038.75 211.541C1044.94 209.43 1050 207.394 1050 207.016C1050 205.559 1045.99 184.604 1045.65 184.259C1045.45 184.059 1043.31 184.738 1040.89 185.768C1032.91 189.173 1025.72 190.393 1013.5 190.419C999.246 190.45 993.966 188.864 988.62 182.946C981.875 175.48 981.648 173.676 981.237 124.195L980.869 79.945H1013.44H1046V68.445V56.945H1013.5H981V32.945C981 10.714 980.871 8.95296 979.25 9.04996C978.288 9.10796 972.1 10.121 965.5 11.3ZM175.5 53.555C139.32 58.882 110.641 74.112 87.232 100.43C72.164 117.371 61.778 137.731 56.225 161.22C53.841 171.307 53.572 174.371 53.572 191.445C53.572 208.519 53.841 211.583 56.225 221.67C63.198 251.162 77.607 275.345 100.315 295.663C117.184 310.756 139.124 321.749 163.081 327.113C178.163 330.489 204.837 330.489 219.919 327.113C256.601 318.901 286.867 298.244 307.145 267.579C316.813 252.961 320.86 242.945 317.101 242.945C316.572 242.945 314.523 246.305 312.548 250.412C294.813 287.284 259.648 314.483 217.96 323.572C205.998 326.18 177.002 326.18 165.04 323.572C117.072 313.114 79.35 279.856 64.021 234.508C58.674 218.688 57.528 211.092 57.528 191.445C57.528 171.798 58.674 164.202 64.021 148.382C77.408 108.778 108.896 77.887 148.5 64.5C168.5 57.7396 171.898 57.492 191 57.468C210.049 57.443 216.5 59 231.835 63.143C241.345 66.149 245.347 66.273 243.037 63.49C241.565 61.716 232.362 58.614 220.5 55.894C211.738 53.885 201.5 52 175.5 53.555ZM302.651 56.018C283.016 60.843 265.474 74.92 256.637 92.945C249.406 107.696 246.738 115.416 246.67 134.445C246.603 153.396 249.576 163.26 256.175 176.945C259.489 183.819 261.921 187.094 268.886 194.062C276.168 201.346 278.969 203.382 287 207.223C301.63 214.221 307.48 215.39 328 215.42C346.51 215.446 353.66 214.507 367.302 210.256L375.105 207.825L374.422 203.135C372.264 188.293 371.322 184.452 369.926 184.798C369.142 184.992 364.225 186.275 359 187.65C346.455 190.951 321.339 191.442 311.071 188.586C290.462 182.853 279.035 169.243 275.48 146.195L274.824 141.945H330.412H386L385.999 135.695C385.998 125.347 384.108 108.685 382 100.445C374.206 69.97 352.439 53.758 319.662 54.017C314.237 54.06 307.299 54.876 302.651 56.018ZM635.651 56.018C616.016 60.843 598.474 74.92 589.637 92.945C582.406 107.696 580.738 115.416 580.67 134.445C580.603 153.396 582.576 163.26 589.175 176.945C592.489 183.819 594.921 187.094 601.886 194.062C609.168 201.346 611.969 203.382 620 207.223C634.63 214.221 640.48 215.39 661 215.42C679.51 215.446 686.66 214.507 700.302 210.256L708.105 207.825L707.422 203.135C705.264 188.293 704.322 184.452 702.926 184.798C702.142 184.992 697.225 186.275 692 187.65C679.455 190.951 654.339 191.442 644.071 188.586C623.462 182.853 612.035 169.243 608.48 146.195L607.824 141.945H663.412H719L718.999 135.695C718.998 125.347 717.108 108.685 715 100.445C707.206 69.97 685.439 53.758 652.662 54.017C647.237 54.06 640.299 54.876 635.651 56.018ZM797 54.556C788.385 55.576 767.041 59.124 762.5 60.291L757.5 61.576L757.244 136.76L756.987 211.945H770.994H785V146.562V81.178L787.75 80.618C789.263 80.31 795.981 79.511 802.68 78.843C816.349 77.481 826.219 78.485 832.965 81.927C838.729 84.868 844.367 91.946 847.094 99.665C849.488 106.442 849.489 106.471 849.794 159.195L850.098 211.945H864.111H878.123L877.763 157.195C877.419 104.907 877.307 102.1 875.263 94.776C869.694 74.818 859.032 63.281 840.657 57.332C833.46 55.002 830.617 54.659 816.5 54.417C807.7 54.266 798.925 54.328 797 54.556ZM410.341 58.669C422.133 101.223 446.696 165.505 465.382 202.71L470.02 211.945H482.569H495.119L501.659 198.195C522.325 154.753 543.462 101.746 553.31 68.669L556.816 56.893L542.194 57.169L527.572 57.445L526.635 60.945C519.294 88.356 485.849 177.945 482.957 177.945C480.216 177.945 455.551 110.044 444.544 72.194L440.255 57.445L425.052 57.169C410.895 56.911 409.882 57.014 410.341 58.669ZM335.48 80.307C345.69 84.982 352.294 93.299 355.467 105.48C356.31 108.717 357 113.296 357 115.655V119.945H316.389H275.777L276.475 116.195C279.943 97.539 292.35 83.164 309.024 78.482C316.702 76.326 328.573 77.145 335.48 80.307ZM668.48 80.307C678.69 84.982 685.294 93.299 688.467 105.48C689.31 108.717 690 113.296 690 115.655V119.945H649.389H608.777L609.475 116.195C612.943 97.539 625.35 83.164 642.024 78.482C649.702 76.326 661.573 77.145 668.48 80.307ZM151.5 116.499C132.5 128.5 118.334 137.572 109.38 169.945C108.031 174.822 106.5 181.621 106.5 192.5C106.5 208.75 108.808 213.31 114.566 225.785C122.914 243.875 138.131 259.059 156.325 267.456C168.627 273.133 174.799 275.5 191 275.5C207.25 275.5 213.365 273.137 225.84 267.379C239.877 260.901 253.405 249.122 261.896 235.985C266 229.635 266.888 226.612 264.991 225.439C262.969 224.19 260.442 226.062 257.888 230.701C248.961 246.915 231.105 260.499 211.291 266.151C200.243 269.302 181.757 269.302 170.709 266.151C143.729 258.455 123.496 238.263 115.836 211.388C112.621 200.109 112.621 181.781 115.836 170.502C123.455 143.772 143.794 123.429 170.557 115.772C182.48 112.361 201.08 112.605 213.415 116.336C222.56 119.102 225 119.136 225 116.499C225 112.02 210.985 107.933 194 107.459C187.125 107.268 171.5 107.459 151.5 116.499ZM182.303 167.59C177.572 169.266 170.937 175.233 168.443 180.055C165.898 184.977 165.448 193.767 167.435 199.749C169.263 205.252 174.795 211.702 180.198 214.628C184.804 217.123 198.196 217.123 202.802 214.628C211.919 209.69 217.622 199.465 216.799 189.536C215.376 172.38 198.711 161.778 182.303 167.59ZM701.174 273.945C701.537 288.349 702.326 292.616 704.11 289.802C704.583 289.056 704.978 287.095 704.988 285.445C705.014 281.408 708.452 275.945 710.966 275.945C713.049 275.945 713.467 276.92 714.792 284.866C715.197 287.298 716.144 289.493 716.895 289.743C718.001 290.112 718.122 289.076 717.53 284.322C716.154 273.279 712.198 270.019 706.765 275.452L704.258 277.96L703.792 269.916C703.528 265.352 702.782 261.347 702.068 260.658C701.059 259.685 700.882 262.311 701.174 273.945ZM608.234 262.734C606.988 263.693 605.504 266.158 604.937 268.211C604.196 270.896 603.358 271.945 601.953 271.945C599.44 271.945 599.46 273.127 602 274.713C603.714 275.783 604 277.045 604 283.537C604 289.151 604.324 291.005 605.25 290.698C606.081 290.423 606.597 287.544 606.79 282.115L607.081 273.945H610.54C612.949 273.945 614 273.489 614 272.445C614 271.392 612.937 270.945 610.433 270.945C607.195 270.945 606.929 270.737 607.555 268.695C608.619 265.225 610.018 263.945 612.745 263.945C614.854 263.945 615.05 263.71 614 262.445C612.395 260.511 611.033 260.579 608.234 262.734ZM429.5 266.945C428.866 271.557 428.6 271.945 426.08 271.945C419.581 271.945 414.594 283.065 418.557 288.722C420.253 291.145 426.305 291.879 427.579 289.817C428.056 289.045 428.565 289.203 429.188 290.317C431.222 293.951 431.765 291.257 431.882 276.945C432.003 262.072 430.841 257.195 429.5 266.945ZM670 266.379C670 268.29 669.41 268.88 667.25 269.129C663.864 269.518 664.014 271.33 667.469 271.761C669.891 272.064 670.001 272.365 670.015 278.761C670.034 287.63 671.456 290.354 676.273 290.755C680.673 291.122 681.3 289.455 677.08 288.611C673.818 287.959 673.426 287.077 672.482 278.265L671.82 272.085L675.16 271.765C679.439 271.355 679.501 269.541 675.25 269.132C672.558 268.872 672 268.4 672 266.382C672 265.041 671.55 263.945 671 263.945C670.45 263.945 670 265.04 670 266.379ZM968 266.379C968 268.29 967.41 268.88 965.25 269.129C961.864 269.518 962.014 271.33 965.469 271.761C967.891 272.064 968.001 272.365 968.015 278.761C968.034 287.63 969.456 290.354 974.273 290.755C978.673 291.122 979.3 289.455 975.08 288.611C971.818 287.959 971.426 287.077 970.482 278.265L969.82 272.085L973.16 271.765C977.439 271.355 977.501 269.541 973.25 269.132C970.558 268.872 970 268.4 970 266.382C970 265.041 969.55 263.945 969 263.945C968.45 263.945 968 265.04 968 266.379ZM927.503 271.242C923.966 274.779 922.015 280.116 922.006 286.278C921.997 291.87 924.349 290.434 925.143 284.363C925.497 281.658 926.232 278.32 926.778 276.945C928.156 273.472 931.609 270.581 933.508 271.31C935.669 272.139 937.832 277.666 938.62 284.371C939.477 291.657 941.006 291.542 940.978 284.195C940.944 275.392 936.814 267.945 931.966 267.945C931.325 267.945 929.316 269.429 927.503 271.242ZM566.388 269.925C560.759 272.199 558.314 280.036 561.692 284.972C564.022 288.377 564.99 288.912 568.85 288.93C573.112 288.949 579 283.477 579 279.495C579 271.935 572.889 267.298 566.388 269.925ZM844 269.233C844 269.483 846.025 274.353 848.5 280.055C850.975 285.757 853 290.54 853 290.684C853 290.827 853.606 290.945 854.346 290.945C855.794 290.945 863.606 271.218 862.569 270.181C861.484 269.096 860.003 271.47 857.059 279.016L854.16 286.445L852.96 283.132C850.887 277.406 846.552 269.549 845.25 269.156C844.563 268.948 844 268.983 844 269.233ZM507.667 270.612C507.3 270.978 507 272.343 507 273.644C507 274.945 506.335 277.601 505.522 279.546C504.268 282.547 503.626 283.034 501.272 282.764C498.676 282.465 498.481 282.108 498.195 277.13C497.793 270.101 495.485 270.581 495.537 277.683C495.585 284.279 497.258 286.308 502.111 285.657L505.805 285.161L504.313 289.54C502.391 295.179 497.81 299.186 494.293 298.304C492.375 297.822 491.853 298.009 492.197 299.054C492.449 299.819 494.24 300.581 496.178 300.746C502.958 301.327 508.058 292.271 509.565 276.979C510.207 270.47 509.656 268.623 507.667 270.612ZM741.954 273.695C739.798 275.621 738.714 277.659 738.333 280.499C737.836 284.206 738.099 284.825 741.413 287.734C745.637 291.443 749.266 292.591 752.809 291.339C757.204 289.785 756.765 287.799 752.187 288.531C749.244 289.002 747.382 288.693 745.126 287.361C740.366 284.549 740.355 282.945 745.097 282.945C749.174 282.945 752.887 281.563 754.235 279.545C755.666 277.401 754.97 274.038 752.777 272.502C749.422 270.151 745.427 270.592 741.954 273.695ZM809.954 273.695C807.798 275.621 806.714 277.659 806.333 280.499C805.836 284.206 806.099 284.825 809.413 287.734C813.637 291.443 817.266 292.591 820.809 291.339C825.204 289.785 824.765 287.799 820.187 288.531C817.244 289.002 815.382 288.693 813.126 287.361C808.366 284.549 808.355 282.945 813.097 282.945C817.174 282.945 820.887 281.563 822.235 279.545C823.666 277.401 822.97 274.038 820.777 272.502C817.422 270.151 813.427 270.592 809.954 273.695ZM887.954 273.695C885.798 275.621 884.714 277.659 884.333 280.499C883.836 284.206 884.099 284.825 887.413 287.734C891.637 291.443 895.266 292.591 898.809 291.339C903.204 289.785 902.765 287.799 898.187 288.531C895.244 289.002 893.382 288.693 891.126 287.361C886.366 284.549 886.355 282.945 891.097 282.945C895.174 282.945 898.887 281.563 900.235 279.545C901.666 277.401 900.97 274.038 898.777 272.502C895.422 270.151 891.427 270.592 887.954 273.695ZM574.443 274.168C576.944 277.737 576.392 281.438 572.923 284.356C569.225 287.468 567.641 287.586 565 284.945C562.726 282.671 562.322 277.182 564.25 274.751C566.912 271.395 572.286 271.087 574.443 274.168ZM429 280.43C429 286.432 427.585 288.257 423.31 287.767C421.057 287.509 420.435 286.879 420.173 284.588C419.734 280.749 421.653 276.408 424.321 275.204C427.955 273.564 429 274.732 429 280.43ZM466.026 275.414C465.242 276.358 463.828 276.661 461.953 276.286C459.654 275.826 458.473 276.318 456.04 278.751C452.64 282.151 452.261 284.445 454.557 287.722C456.234 290.117 460.705 290.708 463.961 288.966C465.29 288.255 466.126 288.392 467.017 289.466C468.355 291.078 471 291.477 471 290.067C471 289.585 470.31 288.617 469.467 287.918C468.263 286.918 468.073 285.42 468.582 280.925C469.254 274.987 468.224 272.766 466.026 275.414ZM751.82 275.229C753.225 276.921 752.103 278.575 748.66 279.884C746.02 280.888 741 280.408 741 279.151C741 278.834 741.978 277.532 743.174 276.259C745.557 273.723 750.119 273.179 751.82 275.229ZM819.82 275.229C821.225 276.921 820.103 278.575 816.66 279.884C814.02 280.888 809 280.408 809 279.151C809 278.834 809.978 277.532 811.174 276.259C813.557 273.723 818.119 273.179 819.82 275.229ZM897.82 275.229C899.225 276.921 898.103 278.575 894.66 279.884C892.02 280.888 887 280.408 887 279.151C887 278.834 887.978 277.532 889.174 276.259C891.557 273.723 896.119 273.179 897.82 275.229ZM463.964 279.901C465.098 280.619 465.205 281.46 464.44 283.636C463.614 285.984 462.883 286.445 459.99 286.445C455.903 286.445 454.806 283.922 457.567 280.871C459.459 278.78 461.663 278.446 463.964 279.901Z" fill="#BF5AF2"/>
</svg>
